<svg xmlns="http://www.w3.org/2000/svg" version="1.1" xmlns:xlink="http://www.w3.org/1999/xlink" xmlns:svgjs="http://svgjs.dev/svgjs" viewBox="0 0 1422 800"><defs><linearGradient x1="50%" y1="0%" x2="50%" y2="100%" id="ssscribble-grad"><stop stop-color="hsl(206, 75%, 49%)" stop-opacity="1" offset="0%"></stop><stop stop-color="hsl(331, 90%, 56%)" stop-opacity="1" offset="100%"></stop></linearGradient></defs><g fill="none" stroke-width="1.5" stroke="url(#ssscribble-grad)" stroke-linecap="round"><path d="M1827.98 700.08C1600.68 732.94 1405.19 761.35 1335.59 784.53 1422.35 806.53 1616.89 821.13 1822.26 826.39 1946.24 828.02 1929.41 817.81 1782.99 794.65 1567.7 767.82 1372.45 729.52 1269.07 682.83 1289.25 641.01 1414.64 601.08 1587.77 571.83 1747.07 565.7 1829.15 585.24 1809.3 638.03 1694.19 723.63 1519 841.16 1333.49 982.66 1177.9 1127.44 1088.66 1262.56 1074.28 1365.81 1129.52 1417.65 1229.15 1409.1 1342.56 1338.23 1451.22 1224.85 1525.23 1089.77 1554.36 968.08 1539.06 899.84 1480.94 905.5 1392.72 994.93 1280.54 1150.55 1161.56 1337.44 1046.93 1505.27 934.77 1603.83 838.14 1604.01 758.2 1502.72 688.24 1337.17 632.89 1160.56 588.41 1038.29 550.17 1021.39 517.38 1119.14 486.63 1301.44 457.56 1501.12 427.24 1643.06 394.38 1668.8 361.51 1567.5 326.9 1380.56 291.96 1182.73 258.7 1047.53 228.42 1023 204.69 1111.44 187.19 1279.05 181.66 1458.95 192.01 1586.84 212.33 1622.54 250.59 1552.02 305.81 1400.59 363.49 1211.68 426.94 1041.03 485.17 931.63 519.42 905.73 525.17 961.85 489.82 1074.74 410.05 1215.33 287.12 1339.87 131.45 1418.57 -28.98 1437.99 -173.73 1391.35 -272.04 1291.4 -300.72 1153.11 -252.51 1002.45 -135.71 861.32 10.98 740.81 149.58 656.3 230.48 609.44 216.11 598.56 102.18 616.8 -86.41 653.41 -288.86 706.45 -441.02 760.6 -485.29 808.22 -406 853.76 -232.14 885.23 -35.39 901.98 92.47 911.5 93.61 907.75 -43.05 893.43 -261.1 874.46 -465.31 848.84 -558.57 819.2 -495.47 788.26 -303.31 755.82 -76.01 722.96 67.14 690.1 55.97 657.59 -97.77 624.53 -318.57 590.16 -494.33 552.72 -543.43 509.72 -445.9 462.07 -245.7 404.95 -31.08 335.81 112.84 259.45 131.83 169.61 30.35 67.13 -147.23 -37.43 -321.96 -147.11 -426.57 -254.11 -426.38 -344.68 -319.19 -415.31 -143.28 -455.09 52.63 -458.88 210.8 -423.3 296.02 -349.81 295.98 -255.7 222.24 -150.16 106.06 -54.94 -25.44 1.94 -131.4 7.58 -189.72 -50.62 -194.02 -168.1 -141.6 -329.23 -46.39 -504.03 80.95 -651.15 218.23 -739.13 349.11 -742.56 470.33 -662.48 567.31 -518.62 639 -353.8 689.43 -226.44 718.99 -177.3 734.5 -231.52 737.04 -377.93 735.11 -573.52 734.41 -753.83 729.44 -854.97 731.13 -840.14 742.08 -711.46 752.36 -520.15 773.49 -336.53 806.35 -235.19 839.21 -260.89 883.03 -399.48 936.76 -592.66 989.81 -768.48 1051.19 -856.58 1118.13 -827.02 1180.8 -692.1 1243.61 -499.79 1300.69 -315.69 1344.8 -195.84 1373.6 -174.6 1380.12 -249.06 1365.38 -392.79 1323.93 -552.9 1256.67 -679.23 1179.74 -739.36 1094.84 -713.19 1018.14 -610.76 973.58 -454.86 970.07 -283.18 1021.39 -130.99 1126.73 -21.31 1277.81 28.26 1452.39 19.5 1611.64 -40.66 1726.39 -130.65 1765.24 -228.41 1718.81 -322.9 1597.24 -391.53 1435.53 -426.48 1293.83 -428.64 1218.49 -395.81 1247.61 -335.73 1381.54 -252.53 1583.05 -157.07 1784.72 -58.3 1910.29 45.33 1912.69 141.99 1787.31 228.45 1591.23 311.22 1406.73 382.32 1321.88 442.66 1383.66 499.37 1569.09 547.85 1796.39 589.85 1956.63 630.68 1971.14 667.22 1827.98 700.08Q1827.98 700.08 1827.98 700.08" opacity="0.55"></path><path d="M1768.48 408.14C1555.71 438.95 1364.67 459.51 1276.9 470.23 1327.03 481.02 1487.83 482.3 1686.8 475.1 1844.94 469.33 1894.93 457.45 1820.63 442.51 1650.25 434.03 1446.86 428.76 1280.18 432.23 1200.02 451.08 1226.31 486.89 1338.91 544.48 1499.78 622.33 1649.65 722.5 1742.94 841.77 1756.87 966.65 1685.47 1092.72 1550.73 1205.91 1380.47 1289.12 1215.07 1333.88 1084.75 1330.07 1005.36 1280.01 986.03 1187.95 1017.93 1069.32 1091.85 954.26 1184.08 862.86 1274.82 821.38 1357.42 847.71 1412.74 942.16 1436.93 1091.93 1433.33 1264.07 1401.06 1422.77 1347.84 1527.65 1276.49 1550.78 1196.5 1484.95 1115.14 1346.44 1028.62 1180.38 948.1 1034.03 876.42 957.12 805 980.38 743.75 1099.59 692.93 1280.62 642.61 1464.09 601.99 1588.96 571.18 1609.3 540.37 1517.51 520.11 1346.79 510.42 1157.8 501.23 1012.55 503.36 957.32 516.68 1004.4 530.26 1136.73 553.71 1306 584.33 1457.36 609.8 1548.69 635.07 1550.12 653.03 1464.2 652.87 1313.51 633.08 1138.25 586.1 980.77 511.32 872.44 406.89 834.41 276.82 865.65 138.59 955.29 0.51 1074.59 -117.49 1193.97 -193.46 1293.99 -216.44 1349.78 -177.43 1354.08 -87.48 1308.42 39.46 1220.09 173.34 1104.51 271.7 971.71 308.8 841.08 262.8 724.68 137.42 625.37 -42.29 552.4 -230.63 504.89 -370.71 480.51 -422.11 475.5 -364.53 483.15 -220.43 503.69 -37.1 527.26 115.88 548.71 172.8 573.54 108.1 591.18 -61.93 599.75 -357.71 607.28 -323.24 572.35 -16.51 530.87 121.9 500.07 126 460.53 -0.5 412.45 -202.56 363.99 -388.53 306.44 -481.19 240.04 -445.94 173.36 -296.46 98.65 -92.91 17.93 92.54 -59.4 194.45 -137.69 185.88 -211.62 75.74 -272.66 -88.43 -319.72 -246.69 -345.93 -351.74 -349.02 -366.44 -325.16 -290.19 -273.34 -142.94 -204.42 34.94 -119.65 200.75 -30.93 324.61 40.57 382.6 86.61 374.43 91.9 307.96 47.24 207.99 -46.98 100.68 -183.38 0.23 -339.13 -68.26 -492.74 -96.89 -614.46 -86.69 -677.79 -38.29 -669.63 37.84 -588.79 136.89 -458.8 244.58 -308.65 351.01 -180.53 458.23 -117.17 553.7 -138.64 635.35 -247.34 709.95 -416.07 771.15 -600.06 821.39 -744.29 866.57 -803.28 904.86 -757.15 938.93 -618.01 971.55 -435.13 1002.76 -267.52 1033.56 -175.69 1064.37 -195.99 1094.05 -317.72 1121.44 -495.09 1147.37 -670.04 1168.21 -780.21 1181.13 -791.6 1188.99 -702.82 1184.86 -541.77 1166.16 -358.33 1140.4 -202.42 1099.65 -116.52 1045.81 -117.05 992.77 -199.32 937.14 -332.92 888.67 -477.58 863.12 -599.88 863.83 -664.49 901.11 -658.76 977.22 -585.21 1091.57 -459.52 1236.1 -308.08 1387.49 -153.08 1529.77 -22.56 1636.61 67.88 1685.16 112.08 1665.62 109.63 1578.14 70.51 1448.7 1.41 1305.12 -78.79 1189.94 -156.19 1145.77 -227.98 1190.33 -279.05 1322.86 -306.33 1508.59 -313.33 1697.89 -297.09 1830.6 -262.56 1861.76 -212.65 1779.91 -152.66 1611.83 -88.3 1425.66 -17.47 1290.89 51.47 1267.54 115.35 1372.08 180.64 1567.12 238.5 1775.27 287.71 1907.88 337 1906.9 377.33 1768.48 408.14Q1768.48 408.14 1768.48 408.14" opacity="0.73"></path><path d="M1708.92 106.32C1510.76 135.07 1326.07 159.76 1224.07 181.2 1240.39 203.59 1363.96 224.61 1544.22 246.41 1718.45 272.01 1820.92 302.05 1818.99 339.6 1714.99 384.94 1542.89 441.71 1356.85 512.08 1207.17 591.47 1134.62 684.1 1150.35 787.74 1244.9 891.97 1383.37 997.23 1524.24 1095.02 1636.01 1173.19 1686.4 1227.41 1667.26 1248.8 1583.76 1235.17 1454 1184.92 1304.2 1102.14 1153.67 1004.09 1028.7 900.4 941.99 810.61 897.31 758.08 894.81 753.24 924.89 805.54 982.59 910.83 1051.15 1056 1118.73 1216.92 1185.44 1360.06 1236.72 1458.49 1269.75 1488.15 1289.97 1442.81 1291.79 1330.85 1278.73 1178.96 1255.3 1031.32 1222.73 924.89 1185.44 893.41 1143.49 951 1101.59 1084.7 1062.58 1259.91 1022.52 1425.95 987.53 1534.39 958.77 1549.81 930.02 1467.16 908.18 1312.66 892.25 1134.72 875.24 984.41 861.96 904.16 849.68 912.23 832.75 1004.18 812.05 1148.76 783.31 1303.46 744.2 1430.55 691.32 1493.43 621.27 1478.79 538.41 1391.33 438.54 1251.59 324.61 1091.4 209.82 939.84 95.43 827.2 -6.57 769.24 -80.97 771.02 -121.27 825.05 -117.73 914 -72.16 1023.62 13.32 1127.77 126.16 1209.14 238.28 1260.8 332.15 1271.83 381.7 1244.12 366.88 1181.91 284.47 1093.71 142.77 990.73 -28.02 877.06 -194.36 766.23 -314.56 665.12 -355.94 572.31 -306.82 495.75 -178.21 435.13 -13.25 386.82 140.12 351.63 227.89 325.92 213.6 308.35 97.39 295.11 -87.92 282.8 -279.27 273.86 -411.3 262.26 -433.32 245.99 -337.01 230.46 -155.23 208.71 42.92 179.96 176 151.21 193.54 116.13 93.59 75.66 -85.57 35.93 -271.78 -7.65 -396.49 -52.94 -418.57 -94.85 -329.33 -134.88 -162.17 -169.48 30.34 -195.95 186.8 -211.83 264.4 -213.35 246.11 -202.56 145.43 -174.6 -0.33 -129 -151.77 -75.11 -260.84 -10.12 -300.78 59.23 -264.44 117.9 -160.01 163.31 -13.51 184.39 149.77 170.96 296.03 120.47 403.54 31.13 462.41 -87.91 468.61 -227.94 431.74 -371.52 359.62 -494.43 273 -580.49 188.22 -612.22 109.68 -584.22 54.22 -499.45 25.38 -373.54 19.82 -238.99 39.85 -122.68 79.48 -56.28 135.9 -62.71 202.1 -144.29 271.72 -287.58 347.54 -458.51 419.92 -616.83 485.69 -719.89 552.34 -739.09 610.29 -667.32 658.65 -522.71 706.89 -350.47 745.59 -198.87 774.35 -116.19 803.1 -131.58 821.23 -237.08 829 -397.42 835.27 -629.59 800.37 -636.1 767.16 -412.16 749.71 -244.04 734.57 -113.35 727.98 -46.92 738.16 -55.49 766.72 -130.48 819.48 -247.98 895.52 -383.25 996.81 -500.56 1119.66 -575.92 1248.76 -598.29 1378.18 -561.44 1491.45 -474.96 1569.47 -351.22 1602.77 -211.63 1581.6 -75.9 1511.78 44.56 1401.42 134.3 1272.09 189.06 1159.53 208.82 1087.1 197.4 1080.68 163.55 1150.54 110.08 1287.46 50.65 1464.55 -6.36 1635.96 -62.79 1760.09 -106.83 1799.49 -136.4 1742.98 -156.94 1605.25 -162.64 1428.96 -155.81 1278.01 -141.19 1202.48 -117.97 1235.63 -89.34 1371.41 -56.92 1566.08 -22.75 1750.94 10.86 1856.61 45.42 1842.03 77.55 1708.98 106.31Q1708.92 106.32 1708.92 106.32" opacity="0.09"></path><path d="M1649.42 160.88C1465.96 187.58 1289.28 219.81 1177 257.68 1163.26 296.16 1248.43 341.35 1400.39 393.89 1573.21 448.07 1709.41 510.53 1769.7 581.22 1739.51 652.96 1627.04 731.47 1465.07 814.37 1292.41 893.1 1152.65 970.12 1074.36 1039.97 1069.76 1095.09 1132.92 1133.68 1241.57 1149.9 1372.99 1142.68 1492.06 1109.26 1574.86 1050.19 1610.26 976.13 1589.63 889.48 1520.28 801.49 1411.76 730.45 1282.73 683.74 1151.07 673.98 1025.72 708.98 923.06 788.43 848.51 906.79 801.87 1046.77 783.63 1191.29 787.62 1316.44 811.94 1398.61 846.69 1423.52 884.58 1383.66 928.48 1288.98 966.79 1155.91 996.37 1013.45 1024.4 898.71 1041.59 836.91 1048.14 847.45 1052.32 932.09 1047.25 1073.33 1034.08 1238.76 1020.07 1386.56 999.49 1479.32 972.79 1490.31 946.09 1416.43 913.9 1278.01 875.91 1112.97 837.07 962.31 790.9 863.29 736.37 836.77 679.47 886.91 612.81 996.76 536.34 1136.7 458.32 1277.08 372.58 1382.1 282.42 1430.28 198.26 1414.22 118.39 1336.5 50.23 1214.38 2.4 1067.85 -21.91 924.05 -16.42 804.83 16.97 723.58 79.89 689.94 167.04 701.76 260.5 754.48 352.87 833.26 426.39 922.69 460.74 1014.95 448.05 1092.06 381.12 1145.77 266.8 1175.43 118 1175.33 -41.21 1148.64 -177.67 1098.6 -266.7 1030.82 -285.91 952.43 -231.43 864.06 -113.44 775.13 39.64 690.24 182.04 605.74 277.13 529.68 292.25 462.96 216.89 399.87 67.95 345.72 -115.16 299.43 -277.43 255.76 -370.46 217.9 -362 184.63 -255 152.15 -81.03 122.76 102.42 96.06 229.51 69.36 258.47 45.98 183.78 26.46 30.41 7.72 -147.06 -5.66 -291.23 -12.34 -360.86 -16.41 -333.17 -11.73 -219.55 2.91 -51.68 21.19 122.92 49.83 259.76 88.05 328.99 126.67 317.94 170.48 237.87 215.01 109.65 249.58 -28.66 274.8 -143.74 283.69 -214.98 269.24 -224.24 229.62 -173.27 161.76 -71.29 69.86 61.94 -43.9 203.92 -171.15 339.95 -295.59 449.41 -407.69 523.73 -491.95 561.05 -535.31 562.13 -531.41 535.29 -477.98 484.14 -386.56 422.77 -268.63 361.01 -145.91 297.94 -47.61 246.75 8.36 210.38 4.87 183.42 -62.85 172.42 -185.25 175.08 -340.69 186.29 -495.7 206.97 -618.32 233.6 -678.78 264.44 -662.58 297.17 -571.44 329.27 -426.07 362.42 -266.31 392.85 -130.59 419.55 -56.68 446.25 -67.64 468.58 -157.67 487.44 -300.19 507.35 -460.33 525.87 -593.73 545.38 -668.09 569.1 -668.35 597.89 -593.81 635.12 -464.02 680.9 -306.48 739.31 -156.02 812.55 -41.77 895.18 17.67 991.5 14.53 1098.4 -43.81 1204 -145.15 1307.94 -263.8 1400.24 -375.97 1468.23 -466.54 1506.88 -516.27 1507.77 -519.74 1471.65 -478.46 1398.85 -398.43 1297.82 -292.4 1190.83 -169.41 1090.91 -46.1 1020.46 66.15 1001.02 163.43 1040 236.59 1139.05 284.96 1281.92 309.89 1446.12 313.86 1598.16 302.58 1702.04 276.57 1734.85 244.68 1685.18 212.21 1567.92 175.58 1410.69 144.49 1257.89 121.19 1159.33 98.95 1144.4 85.94 1224.33 82.11 1378.8 79.93 1564.14 85.98 1722.79 99.51 1802.77 113.64 1776.51 134.18 1649.42 160.88Q1649.42 160.88 1649.42 160.88" opacity="0.77"></path><path d="M1589.92 505.63C1421.19 530.27 1254.1 562.07 1135.47 600.4 1096.26 638.43 1144.11 682.36 1261.39 730.93 1417.56 777.88 1567 827.49 1671.58 877.39 1708.76 922.38 1668.32 963.71 1562.57 997.87 1414.02 1022.02 1256.13 1034.1 1120.09 1030.88 1027.54 1014.22 993.45 980.54 1016.75 930.15 1090.3 871.52 1193.52 803.27 1304.46 731.81 1408.96 670.26 1485 621.3 1523.27 594.33 1522.36 598.25 1481.71 635.23 1409.69 707.16 1312.33 807.93 1202.99 930.97 1092.56 1063.31 983.56 1185.89 887.82 1285.08 808.8 1344.76 744.17 1355.2 697.63 1313.41 666.37 1224.24 648.06 1106.32 639.66 977.38 636.86 862.86 640.88 789.76 645.25 772.32 646.92 818.56 650.91 922.13 649.4 1064.31 640.86 1216.61 632.75 1345.8 616.68 1423.76 592.03 1430.81 567.39 1365.3 534.75 1242.68 494.86 1092.02 455.39 945.34 409.6 834.02 359.13 778.97 310.98 789.33 260.95 859.05 212.21 970.17 170.3 1102.43 134.93 1225.82 110.53 1317.4 99.08 1364.14 103.97 1356.04 128.13 1296.92 166.68 1195.99 223.14 1069.95 294.16 937.55 366.6 812.61 439.25 712.17 501.35 644.7 538.1 613.48 544.92 618.05 513.52 651.83 442.95 710.78 336.15 781.96 202.55 855.29 62.51 928.52 -68.15 989.16 -167.36 1033.01 -216.32 1062.13 -206.11 1071.37 -135.54 1062.74 -21.49 1039.21 116.31 1002.44 246.79 956.7 334.47 902.25 358.87 844.48 307.78 786.79 189.3 725.87 28.09 668.4 -137.58 616.16 -264.38 563.29 -319.48 516.78 -285.15 477.35 -171.4 437.91 -6.8 405.66 161.92 381.01 282.41 356.36 320.77 339.9 269.54 331.34 143.61 322.76 -17.64 321.96 -168.74 328.35 -272.83 334.11 -300.52 345.92 -247.63 362.13 -127.83 375.1 29.29 389.1 187.39 400.85 315.82 403.87 388.43 399 396.53 382.08 342.33 350.24 243.6 301.72 124.64 234.62 4.68 152.8 -88.89 55.47 -141.44 -53.01 -148.31 -161.6 -107.43 -266.62 -28.06 -357.88 81.14 -423.98 203.6 -459.32 325.08 -457.21 439.49 -418.86 533.57 -345.86 603.4 -246.59 649.68 -139.85 671.61 -37.69 674.04 41.26 658.47 78.41 632.63 66.44 602.57 1.65 565.7 -107.97 532.05 -247.41 504.78 -393.57 468.09 -559.36 442.35 -522.46 452.3 -328.64 462.26 -182.85 479.65 -62.71 504.3 2.81 528.94 -4.2 560.26 -79.64 598.3 -203.94 636.89 -351.37 683.15 -486.31 737.47 -580.39 793.1 -617.13 857.29 -587.94 929.42 -500.95 1001.41 -372.52 1078.84 -227.53 1158.41 -91.55 1231.18 15.69 1298.68 77.57 1354.72 89.12 1392.75 51.43 1410.11 -23.86 1401.81 -120.78 1369.96 -227.46 1312.57 -323.06 1233.42 -394.74 1147.21 -437.56 1058.59 -443.78 981.68 -415.4 934.62 -356.14 924.5 -273.34 960.46 -176.52 1042.12 -69.81 1163.14 35.12 1308.76 131.74 1453.38 220.12 1576 293.08 1652.18 350.21 1666.07 393.9 1613.54 423.46 1503.17 442.03 1363.13 450.58 1222.05 453.02 1116.16 452.75 1077.18 447.55 1116.64 443.6 1230.24 443.14 1390.85 441.04 1559.37 444.42 1690.17 454.39 1746.28 464.07 1710.41 480.98 1589.92 505.63Q1589.92 505.63 1589.92 505.63" opacity="0.97"></path><path d="M1530.48 722.17C1376.49 744.76 1220.36 767.52 1099.19 789.9 1039.64 811.66 1053.25 831.83 1132.87 849.09 1260.75 864.04 1404.08 873.96 1530.89 877.14 1617.98 875.92 1645.26 865.89 1609.91 845.89 1519.45 820.87 1391.61 785.91 1249.9 741.91 1114.33 696.75 1007.36 647.11 941.41 597.11 921.63 556.04 946.3 523.71 1005.7 506.07 1091.94 509.54 1186.88 535.51 1276.52 586.79 1355.15 661.17 1409.18 757.01 1435.08 868.54 1434.13 983.71 1405.86 1095.17 1355.81 1190.57 1286.81 1257.37 1206.84 1288.42 1122.56 1277.55 1033.3 1227.18 948.26 1141.28 870.61 1031.1 796.16 916.83 731.56 813.01 676.61 738.36 626.26 709.39 584.09 731.63 548.54 805.12 515.76 919.21 487.25 1056.38 461.61 1192.95 436.75 1303.53 413.26 1367.68 390.67 1371.3 368.08 1313.76 346.91 1206.51 327.77 1071.33 309.4 932.44 294.55 815.22 284.73 738.8 277.67 714.38 277.98 743.29 287.35 816.96 301.31 923.78 325.79 1042.02 361.08 1151.92 399.58 1240.15 446.44 1290.75 498.61 1298.35 545.8 1263.71 589.75 1191.52 623.93 1092.63 639.16 976.44 633.81 857.89 602.43 748.68 544.21 655.05 459.16 585.98 350.92 543.62 231.66 527.97 108.52 536.58 -4.38 563.96 -90.46 608.51 -140.28 660.97 -144.02 715.13 -101.6 771.97 -16.52 822.04 98.89 862.51 220.44 897.13 329.88 919.72 403.78 930.87 422.57 934.75 380.57 928.93 280.74 915.52 141.19 897.1 -12.93 874 -149.52 848.31 -237.87 820.31 -258.12 792 -203.04 764.82 -86.34 737.07 67.49 711.58 221.48 688.99 334.75 666.39 380.42 647.23 350.38 630.98 252.26 614.16 112.96 599.1 -33.56 584.49 -157.35 567.58 -228.38 548.83 -233.51 526.26 -173.52 498.69 -61.05 464.39 80.26 421.36 226.73 371.07 351.06 310.29 434.82 238.59 468.44 161.03 450.49 74.95 390.04 -16.71 296.81 -105.69 191.41 -191.78 91.3 -268.65 -21.81 -348.19 -33.03 -348.8 61.34 -261.42 152.92 -178.9 253.59 -85.5 354.76 7.16 455.27 82.53 545.05 132.84 621.2 147.34 686.25 119.61 736.15 50.61 772.8 -54.16 798.76 -180.62 815.35 -313.57 825.93 -433.14 830.32 -519.57 833.01 -559.28 836.67 -543.6 837.91 -475.92 842.79 -365.36 852.82 -230.95 862.33 -100.23 878.07 4.73 900.66 62.3 923.25 58.71 952.17 -3.12 986.66 -109.22 1020.64 -241.33 1059.12 -371.85 1100.48 -477.24 1139.42 -542.03 1178.59 -553.5 1215.2 -511.79 1245.6 -424.4 1269.14 -305.87 1282.33 -175.05 1284.83 -48.3 1273.11 56.01 1245.15 126.54 1206.1 157.56 1152.33 148.41 1086.64 105.14 1020.29 33.27 953.25 -53.03 894 -141.52 855.09 -226.38 839.81 -294.02 855.73 -338.8 905.78 -360.47 989.23 -355.42 1101.39 -326.56 1228.18 -276.61 1358.73 -210.65 1475.49 -134.76 1559.46 -49.93 1599.31 35.7 1585.83 117.96 1522.23 199.05 1416.31 272.19 1286.4 336.37 1161.63 395.52 1063.88 445.67 1016.64 487.88 1034.51 525.69 1116.33 557.62 1248.84 585.28 1404.08 610.63 1550.03 633.82 1652.62 656.06 1687.13 677.69 1643.75 699.58 1530.48 722.17Q1530.48 722.17 1530.48 722.17" opacity="0.30"></path><path d="M1470.98 547.73C1331.71 568.27 1187.76 582.68 1067.69 591.01 993.34 599.14 977.49 600.84 1019.87 596.07 1112.23 590.84 1233.63 579.01 1360.46 560.96 1473.57 543.12 1550.64 520.14 1580.56 493.5 1560.88 469.85 1494.64 445.76 1393.77 424.09 1270.76 410.77 1144.06 404.94 1029.16 410.12 935.71 429.42 874.26 463.87 847.19 515.25 854.25 581.44 890.08 662.86 946.32 756.69 1019.03 854.95 1095.3 954.97 1166.88 1049.14 1232.87 1127.65 1283.31 1185.65 1316.01 1216.06 1333.41 1215.65 1332.55 1182.83 1316.16 1119.31 1286.48 1034.53 1246.26 934.78 1199.44 832.25 1145.45 743.7 1089.86 678.51 1035.56 648.03 978.81 659.81 926.09 713.57 878.82 804.7 831.17 921.21 789.78 1048.27 755.21 1167.29 720.67 1259.68 692.95 1311.11 672.41 1311.8 651.87 1261.81 639 1169.37 633.54 1050.36 628.11 922.47 630.08 805.36 638.99 715.29 647.54 663.34 662.21 655.07 681.7 688.53 698.73 758.9 717.84 852.88 736.24 956.24 747.47 1058.63 752.99 1143.86 748.94 1202.48 731.61 1230.86 699.72 1224.52 650.67 1186.18 586.32 1119.87 505.31 1033.13 409.93 934.92 308.97 830.46 204.49 730.21 104.87 640.58 21.71 563.42 -39.75 504.3 -71.06 463.69 -68.24 440.79 -29.66 434.42 42.39 441.17 135.91 460.69 242.71 487.33 347.4 517.25 429.95 552.52 479.45 586.06 484.08 615.53 439.11 645.35 348.67 668.86 223.97 685.42 85.54 700.58 -45.66 708.74 -145.94 710.21 -196.25 710.53 -186.44 704.98 -116.15 694.06 -0.15 682.77 141.71 666.79 280.98 646.25 386.47 625.72 437.42 601.11 425.95 572.4 354.85 543.32 241.27 509.45 108.97 470.4 -19.83 430.2 -118.51 384 -170.64 331.58 -169.82 277.75 -115.86 217.77 -19.76 152.36 104.51 87.3 236.66 19.06 358.08 -49.93 455.88 -113.58 517.6 -172.97 539.71 -224.14 522.39 -262.55 472.51 -286.76 400.52 -293.25 312.82 -282.03 224.84 -251.12 146.67 -200.88 81.26 -138.17 38.52 -63.56 20.1 16.64 24.23 90.6 50.92 154.48 95.55 199.41 156.06 216.38 226.1 202.82 300.38 156.14 379.89 79.2 456.88 -22.75 528.51 -140.19 598.77 -258.6 661.28 -365.96 715.71 -447.93 767.14 -492.99 811.16 -494.54 848.66 -450.54 884.17 -368.41 914.77 -257.35 941.37 -133.53 967.38 -18.57 990.52 71.78 1011.06 121.8 1031.59 121.13 1049.05 71.8 1063.04 -16.5 1076.44 -131.45 1085.26 -252.47 1088.49 -361.07 1089.71 -444.28 1083.74 -488.25 1069.58 -488.45 1052.41 -446.39 1026.38 -367.84 991.71 -264.24 955.67 -146.65 913.39 -30.16 867.6 72.93 827.05 154.78 789.75 207.5 760.88 229.3 747.91 220.28 751.8 185.15 777.05 130.9 824.85 60.98 895.79 -13.4 988.13 -84.74 1093.22 -151.65 1206.83 -204.87 1318.78 -241.68 1415.03 -263.68 1487.77 -267.56 1526.48 -255.21 1525.75 -228.73 1483.94 -190.16 1404.46 -143.12 1301.35 -87.73 1185.94 -28.93 1076.72 30.3 995.67 92.54 955.08 151.99 965.85 207.1 1029.58 262.41 1138.06 312.28 1274.8 356.25 1415.02 399.75 1534.65 437.47 1609.81 469.34 1625.34 501.01 1576.47 527.2 1470.98 547.73Q1470.98 547.73 1470.98 547.73" opacity="0.65"></path><path d="M1411.48 193.99C1286.88 212.48 1156.12 226.21 1040.48 235.57 956.93 245.21 917.67 251.05 926.23 253.91 980.63 258.02 1069.5 260.47 1177.67 262.63 1291.98 267.89 1393.14 275.03 1467.96 285.9 1509.74 302.44 1511.9 325.31 1476.29 356.26 1407.52 395 1314.51 443.45 1208.37 502.18 1096.93 567.91 992.78 642.4 903.99 723.73 834.08 805.84 788.38 888.7 766.74 967.74 768.36 1036.15 789.48 1091.86 824.86 1129.78 873.51 1146.54 927.01 1140.05 980.33 1109.04 1035.02 1057.48 1082.92 986.61 1121.9 901.96 1155.68 814.58 1178.84 729.7 1191.92 656.94 1198.83 607.31 1197.19 585.27 1188.76 595.87 1176.05 640.26 1158.98 715.18 1139.33 814.07 1117.67 925.74 1095.37 1038.69 1073.66 1139.13 1051.44 1214.12 1030.82 1254.02 1012.33 1252.3 993.85 1209.42 977.94 1131.11 964.15 1028.55 949.86 914.19 936.69 802.52 923.49 706.5 908.28 635.7 891.1 597.35 870.28 593.44 845.17 623.6 813.98 681.58 775.04 758.96 729.93 849.48 675.53 940.41 611.41 1022.45 542.07 1091.16 464.71 1137.76 381.53 1159.49 299.72 1156.77 218.7 1129.43 143.61 1081.27 81.78 1015.2 35.28 937.29 9.44 853.33 6.85 765.19 29.47 680.09 77.55 601.77 144.52 529.78 228.09 468.83 320.28 419.41 407.17 379.92 482.27 351.42 534.56 332.24 553.67 321.48 536.45 317.16 481.12 317.03 392.76 322.04 279.56 328.31 154.82 334 36.22 342.04 -61.47 347.56 -123 349.41 -138.7 352.03 -104.87 350.05 -24.98 342.83 87 335.76 215.88 323.14 340.48 304.66 437.64 286.18 491.78 262.27 495.92 233.34 449.91 204.55 363.74 171.06 252.84 133.58 132.1 96.88 22.64 57.11 -59.95 15.53 -106.93 -23.68 -110.59 -62.78 -72.47 -99.82 2 -131.73 102.48 -158.65 215.93 -178.25 332.11 -189.42 436.93 -190.39 521.19 -179.4 580.2 -158.47 609.57 -125.03 610.61 -79.5 584.84 -27.62 538.84 32.08 479.85 96 410.23 155.73 340.59 210.58 276.84 254.83 218.55 281.16 173.66 287.93 143.55 271.41 125.65 230.44 122.73 165.95 132.74 80.75 153.56 -17.76 183.63 -123.75 219.89 -227.83 262.55 -318.76 307.5 -388.78 352.32 -429.38 399.8 -435.92 444.7 -406.41 485.59 -342.76 527.21 -253.88 563.8 -147.66 594.62 -36.95 625.55 61.95 650.48 138.4 668.96 181.3 687.44 183.04 699.05 145.03 704.13 73.71 709.3 -23.05 708.19 -130.57 701.43 -235.11 695.41 -326.88 684.75 -392.98 670.8 -426.96 659.52 -427.13 647.4 -393.07 636.77 -329.89 632.54 -243.59 633.71 -143.64 643.24 -39.77 663.58 61.36 695.97 150.14 742.36 220.95 800.96 271.21 873.36 298.29 958.09 303.36 1048.3 287.26 1143.32 254.63 1237.16 210.44 1320.38 155.63 1389.45 98.15 1437.05 42.49 1457.83 -12.39 1449.04 -59.36 1409.29 -96.6 1344.27 -126.85 1257.36 -145.83 1157.67 -154.23 1060.71 -154.83 975.29 -146.46 914.36 -130.97 889.79 -109.8 905.48 -84.11 962.89 -55.84 1055.92 -24.46 1174.21 7.32 1302.09 38.07 1420.12 70.07 1511.72 99.7 1561.4 126.07 1560.91 152.71 1508.64 175.51 1411.48 193.99Q1411.48 193.99 1411.48 193.99" opacity="0.63"></path><path d="M1351.98 90.24C1124.68 123.1 929.23 161.82 854.42 208.98 926.77 260.57 1099.65 328.25 1287.07 416.47 1421.25 514.06 1444.1 632.79 1359.74 764.86 1197.04 885.92 1010.71 991.63 849.45 1057.23 732.7 1066.5 679.45 1010.74 677.31 893.2 717.99 751.87 775.02 614.24 827.56 529.56 885 538.73 921.28 646.57 933.3 829.52 942.8 1025.64 930.71 1167.06 897.85 1192.8 864.99 1091.5 812.92 905.35 741.44 709.71 667.45 570.12 571.39 530.31 457 588.93 347.52 723.37 236.36 877.69 145.04 1003.26 96.53 1078.46 102.61 1079.79 176.29 1018.07 294.48 906.91 441.84 772.63 570.33 639.87 620.47 510.03 568.16 404.24 409.88 324.07 198.38 258.39 6.79 210.96 -78.22 174.08 -16.1 142.18 172.68 111.61 399.98 78.75 543.14 45.89 534.75 12.29 392.02 -17.77 182.15 -42.87 11.61 -55.22 -50.03 -46.5 13.15 -23.27 174.64 28.38 369.95 107.57 548.7 189.69 659.78 276.79 693.2 344.9 655 363.56 573.75 323.28 482.75 213.88 386.34 54.1 317.52 -129.68 281.42 -288.22 262.71 -370.94 270.15 -349.85 293.57 -222.97 323.36 -40.02 357.37 139.47 390.23 240.8 423.1 215.1 453.24 80.35 485.43 -103.08 523.99 -273.36 576.32 -362.52 651.98 -347.61 745.03 -238.86 867.96 -71.76 1015.02 103.78 1156.67 255.54 1285.09 350.27 1366.37 384.07 1376.02 361.54 1303.9 303.01 1159.36 232.6 998.27 151.17 866.26 86.56 827.15 45.91 912.88 14.64 1102.13 6.74 1324.68 17.12 1480.09 31.93 1495.14 57.38 1351.98 90.24Q1351.98 90.24 1351.98 90.24" opacity="0.29"></path><path d="M1292.42 362.39C1094.27 391.14 909.93 437.59 805.4 499.83 811.31 561.87 915.39 638.33 1070.61 724.03 1233.03 802.84 1343.98 879.77 1378.49 942.12 1336.46 978.02 1230.74 980.7 1093.05 940.6 940.22 867.29 804.67 760.1 699.98 636.92 622.03 533.9 576.51 467.62 553.2 464.83 547.35 536.64 547.42 673.54 543.3 847.01 543 1009.72 530.41 1117.89 501.65 1133.31 472.9 1050.66 429.35 896.79 375.42 721.54 325.31 570.17 272.94 481.77 228.96 469.51 202.44 530.77 200.61 639.09 234.24 761.41 294.61 880.74 388.89 964.11 504.03 1001.86 604.04 998.13 675.66 953.61 687.75 883.05 623.31 791.09 486.57 694.66 303.07 604.97 126.78 513.47 6.33 436.16 -10.67 375.38 82.76 315.88 261.27 271.44 459.42 242.69 592.51 213.93 612.06 202.22 520.84 207.5 352.89 214.06 178.14 239.06 55.96 280.74 14.83 320.59 68.12 369.66 190.66 417.31 354.76 443.56 517.03 446.81 647.58 412.85 738.21 337.41 778.87 219.96 780.79 70.69 749.53 -81.55 704.98 -215.66 662.88 -298.01 614.56 -306.84 582.1 -234.82 569.68 -94.56 558.13 69.57 566.44 217.63 595.19 300.3 623.94 284.91 671.77 182.58 737.53 30.97 804.17 -131.4 888.94 -251.94 987.09 -302.7 1079.03 -278.84 1170.93 -186.78 1246.52 -53.82 1288.92 99.29 1289.56 240.58 1236.63 351.58 1143.76 429.36 1015.59 467.96 881.42 476.38 788.82 458.35 761.29 428.77 823.48 399.79 966.71 363.92 1157.83 339.76 1336.88 331.94 1439.22 323.93 1425.53 333.63 1292.48 362.38Q1292.42 362.39 1292.42 362.39" opacity="0.81"></path><path d="M1232.92 680.17C1064.19 704.81 897.64 736.41 778.51 772.07 733 805.12 766.56 837.07 860.36 861.81 993.86 876.45 1126.35 875.12 1229.09 851.82 1292.85 812.65 1302.58 749.46 1265.57 665.77 1190.05 580.76 1091.7 494.92 987.58 425.16 877.24 392.53 778.92 402.98 697.71 464.73 622.62 572.14 564.07 712.87 519.63 862.34 478.13 988.83 445.72 1066.76 421.08 1073.81 396.43 1008.3 380.71 886.12 375.74 738.13 373.7 592.5 387.41 478.82 419.79 413.78 458.29 403.21 516.02 441.51 588.38 512.95 654.51 609.49 717.48 706.19 760.69 788.07 765.4 856.46 726.46 896.58 637.03 909.78 508.63 903.45 354.03 877.76 202.47 840.94 90.6 794.67 43.02 746.87 79.02 703.69 188.63 658.5 350.19 622.16 518.92 597.52 639.41 572.87 679.13 561.08 634.23 559.8 518.13 556.5 370.5 559.46 232.22 563.02 127.06 557.13 83.41 542.23 102.75 510.57 176.88 459.39 288.56 383.9 414.27 283.2 545.62 169.02 660.13 43.11 750 -79.08 820.59 -176.19 866.65 -236.6 895.02 -244.1 910.42 -197.15 919.4 -97.5 929.31 38.59 935.99 177.07 950.11 294.27 974.76 359.8 999.4 352.78 1033.39 279.86 1073.2 162.88 1109.76 22.92 1145.62 -103.78 1172.94 -193.14 1187.29 -236.84 1181.82 -225.19 1149.22 -166.9 1097.35 -71.48 1018.23 43.57 919.18 160.89 825.76 276.88 743.3 375.45 694.82 452.61 701.13 513.9 766.86 555.82 890.08 583.89 1046.42 601.86 1208.07 614.74 1333.7 628.16 1388.13 638.98 1353.44 655.51 1232.98 680.16Q1232.92 680.17 1232.92 680.17" opacity="0.23"></path><path d="M1173.48 657.93C1034.21 678.47 890.84 690.38 771.58 693.09 694.43 694.4 670.46 684.12 696.63 661.07 767.33 634.86 862.79 595.04 963.72 543.31 1063.91 492.58 1142.41 436.48 1192.65 382.36 1218.8 344.03 1216.15 321.8 1191.56 324.61 1149.31 358.2 1096.59 423.34 1041.64 518.18 980.69 631.82 925.13 755.27 879.43 871.47 832.88 962.01 798.29 1013.61 777.75 1014.3 757.22 964.3 751.7 872.12 759.51 755.34 766.48 629.47 784.68 513.66 810.04 421.93 838.84 347.48 838.41 400.61 771.92 487.08 694.76 555.77 591.92 617.95 470.34 668.15 348.02 713.89 234.14 744.36 148.38 760.26 107.16 770.85 119.44 770.14 188.67 760.81 300 749.65 439.21 733.17 578.48 712.63 683.97 692.1 735.74 668.47 728.34 640.89 664.62 611.5 563.31 574.84 447.27 528.66 329.62 477.17 236.03 412.87 177.8 335.48 154.65 253.63 170.57 161.96 216.93 66.35 288.48 -20.71 373.22 -97.71 460.04 -153.71 551.62 -180.38 634.34 -172.58 704.27 -126.3 771.17 -49.62 824.99 54.48 866.37 172.43 906.08 281.28 936.09 369.3 956.63 419.3 977.16 418.61 987.26 371.17 986.28 288.55 983.64 180.29 967.18 68.53 935.88 -30.05 901.53 -109.84 852.64 -156.56 792.71 -168.76 737.54 -150.19 682.29 -103.61 637.66 -38.36 618.21 42.67 626.65 128.26 671.18 210.64 750.8 294.02 862.81 367.67 995.51 429.47 1126.6 488.11 1239.61 535.76 1311.25 573.18 1326.57 609.2 1278.97 637.39 1173.48 657.93Q1173.48 657.93 1173.48 657.93" opacity="0.23"></path><path d="M1113.97 322.61C886.66 355.47 691.36 346.6 607.66 307.96 648.88 279.56 770.17 247.31 899.34 245.51 1024 300.41 1090.63 422.77 1104.16 603.29 1096.29 788.66 1066.58 929.09 1033.72 954.79 1000.86 853.46 967.95 668.86 918.87 481.17 848.4 335.42 730.49 267.56 562.76 265.35 390.52 316.36 234.37 379.9 169.06 423.31 228.68 470.57 410.66 481.26 637.97 448.4 781.13 415.54 778.24 342.24 659.65 238.03 476.02 137.67 324.21 22.85 249.98 -71.22 241.52 -112.09 296.19 -79.08 370.67 42.57 462.8 206.18 535.26 377.46 568.12 478.79 600.98 453.09 591.13 325.98 555.96 164.69 538.42 8.26 535.03 -79.23 586.56 -91.06 703.86 -46.2 890.53 37.33 1098.24 122.68 1240.92 218.27 1257.13 289.75 1113.97 322.61Q1113.97 322.61 1113.97 322.61" opacity="0.64"></path><path d="M1054.48 81.24C885.74 105.88 720.27 125.78 602.29 148.52 544.69 181.29 548.76 234.02 589.75 316.14 662.29 419.15 730.26 550.81 773.13 691.56 816.3 810.35 827.68 888.25 803.04 895.3 778.39 829.79 720.05 708.47 634.17 568.46 548.58 427.76 442.15 314.41 337.32 238.33 264.02 190.88 233.81 169.51 273.35 158.99 373.26 158.18 528.74 150.01 697.48 125.36 817.94 100.72 860.29 61.93 828.53 20.03 734.44 -12.15 619.94 -29.25 520.81 -14.1 429.83 29.67 377.76 116.88 361.42 239.51 356.33 361.46 370.42 472.79 395.06 538.3 419.71 531.25 452.58 463.34 500.38 362.62 559.44 239.93 649.96 134.4 773.25 63.7 904.68 13.89 1045.32 -0.38 1157.47 9.55 1207.31 29.53 1174.94 56.59 1054.48 81.24Q1054.48 81.24 1054.48 81.24" opacity="0.47"></path><path d="M994.98 226.62C767.65 259.49 572.88 365.49 481.16 521.8 459.99 671.5 466.41 810.06 433.55 835.8 400.68 734.48 334.76 553 312.87 396.37 361.52 255.16 529.65 168.52 756.98 135.66 900.14 102.8 907.99 129.94 843.59 228.08 730.49 341.63 665.55 496.48 698.41 597.8 731.27 572.06 855.72 460.13 1011.88 353.51 1119.35 240.27 1138.14 193.76 994.98 226.62Q994.98 226.62 994.98 226.62" opacity="0.58"></path></g></svg>